<?xml version="1.0" encoding="UTF-8"?>
<svg xmlns="http://www.w3.org/2000/svg" version="1.1" width="400" height="400" viewBox="0 0 400 400"><rect x="0" y="0" width="400" height="400" fill="#fefefe"/><g transform="scale(8.889)"><g transform="translate(4.000,4.000)"><path fill-rule="evenodd" d="M9 0L9 1L8 1L8 2L9 2L9 3L8 3L8 4L10 4L10 7L11 7L11 4L12 4L12 5L13 5L13 4L17 4L17 5L18 5L18 7L19 7L19 5L20 5L20 8L15 8L15 6L16 6L16 7L17 7L17 6L16 6L16 5L14 5L14 8L13 8L13 6L12 6L12 9L19 9L19 10L15 10L15 13L17 13L17 14L20 14L20 15L19 15L19 16L17 16L17 15L16 15L16 14L14 14L14 13L12 13L12 11L14 11L14 10L11 10L11 11L10 11L10 10L8 10L8 9L11 9L11 8L6 8L6 9L5 9L5 8L0 8L0 9L3 9L3 10L4 10L4 9L5 9L5 10L6 10L6 11L4 11L4 12L6 12L6 13L3 13L3 12L2 12L2 14L3 14L3 15L4 15L4 16L3 16L3 17L2 17L2 16L1 16L1 14L0 14L0 16L1 16L1 17L2 17L2 18L3 18L3 20L2 20L2 21L3 21L3 22L4 22L4 20L6 20L6 21L5 21L5 23L3 23L3 24L5 24L5 25L7 25L7 26L5 26L5 27L4 27L4 29L7 29L7 28L6 28L6 27L8 27L8 31L9 31L9 30L10 30L10 28L11 28L11 29L12 29L12 30L13 30L13 31L12 31L12 33L13 33L13 32L14 32L14 33L17 33L17 34L15 34L15 35L14 35L14 36L15 36L15 37L19 37L19 36L17 36L17 34L20 34L20 33L21 33L21 35L20 35L20 36L22 36L22 37L28 37L28 36L29 36L29 37L31 37L31 35L32 35L32 34L33 34L33 35L34 35L34 34L35 34L35 35L36 35L36 36L32 36L32 37L37 37L37 33L35 33L35 32L37 32L37 30L35 30L35 32L33 32L33 30L34 30L34 29L35 29L35 28L33 28L33 26L34 26L34 27L36 27L36 28L37 28L37 26L36 26L36 25L37 25L37 22L36 22L36 21L37 21L37 18L36 18L36 17L37 17L37 14L36 14L36 13L35 13L35 12L34 12L34 11L35 11L35 9L36 9L36 8L35 8L35 9L34 9L34 8L33 8L33 9L34 9L34 11L33 11L33 10L32 10L32 8L31 8L31 12L29 12L29 11L30 11L30 10L29 10L29 9L30 9L30 8L29 8L29 4L28 4L28 5L27 5L27 6L26 6L26 4L27 4L27 3L29 3L29 2L28 2L28 1L26 1L26 0L25 0L25 1L26 1L26 4L25 4L25 3L24 3L24 2L22 2L22 1L24 1L24 0L21 0L21 2L20 2L20 4L19 4L19 3L13 3L13 4L12 4L12 2L14 2L14 1L15 1L15 2L19 2L19 1L20 1L20 0L19 0L19 1L15 1L15 0L14 0L14 1L11 1L11 2L10 2L10 0ZM10 3L10 4L11 4L11 3ZM21 3L21 4L20 4L20 5L21 5L21 7L22 7L22 8L20 8L20 10L19 10L19 11L22 11L22 10L23 10L23 12L19 12L19 13L23 13L23 12L24 12L24 11L25 11L25 12L26 12L26 10L28 10L28 11L27 11L27 12L28 12L28 11L29 11L29 10L28 10L28 9L29 9L29 8L28 8L28 9L24 9L24 8L23 8L23 7L24 7L24 6L25 6L25 8L27 8L27 7L28 7L28 6L27 6L27 7L26 7L26 6L25 6L25 5L21 5L21 4L22 4L22 3ZM18 4L18 5L19 5L19 4ZM8 5L8 7L9 7L9 5ZM22 6L22 7L23 7L23 6ZM6 9L6 10L7 10L7 11L6 11L6 12L9 12L9 11L8 11L8 10L7 10L7 9ZM23 9L23 10L24 10L24 9ZM36 10L36 11L37 11L37 10ZM0 11L0 13L1 13L1 11ZM17 11L17 12L18 12L18 11ZM10 12L10 13L11 13L11 14L10 14L10 16L11 16L11 18L13 18L13 19L12 19L12 21L10 21L10 19L9 19L9 21L10 21L10 22L9 22L9 23L6 23L6 24L7 24L7 25L8 25L8 27L9 27L9 28L10 28L10 26L13 26L13 27L12 27L12 29L15 29L15 30L16 30L16 31L14 31L14 32L19 32L19 33L20 33L20 30L21 30L21 29L22 29L22 30L23 30L23 31L24 31L24 32L26 32L26 30L27 30L27 29L28 29L28 28L27 28L27 26L28 26L28 27L29 27L29 28L30 28L30 27L29 27L29 26L28 26L28 25L29 25L29 23L31 23L31 24L36 24L36 23L34 23L34 21L32 21L32 22L33 22L33 23L31 23L31 21L30 21L30 22L29 22L29 23L28 23L28 25L27 25L27 26L26 26L26 25L25 25L25 24L27 24L27 23L26 23L26 21L24 21L24 20L21 20L21 19L20 19L20 18L19 18L19 17L22 17L22 18L23 18L23 19L24 19L24 18L26 18L26 19L25 19L25 20L26 20L26 19L27 19L27 20L31 20L31 19L32 19L32 20L36 20L36 19L35 19L35 18L34 18L34 17L32 17L32 16L31 16L31 19L30 19L30 17L29 17L29 15L28 15L28 17L27 17L27 18L26 18L26 17L24 17L24 18L23 18L23 17L22 17L22 16L21 16L21 15L23 15L23 16L27 16L27 15L26 15L26 13L24 13L24 14L21 14L21 15L20 15L20 16L19 16L19 17L18 17L18 18L16 18L16 17L17 17L17 16L16 16L16 15L14 15L14 16L13 16L13 17L12 17L12 15L13 15L13 14L12 14L12 13L11 13L11 12ZM31 12L31 13L29 13L29 14L31 14L31 13L32 13L32 14L33 14L33 16L35 16L35 17L36 17L36 14L35 14L35 15L34 15L34 13L33 13L33 12ZM6 13L6 14L4 14L4 15L5 15L5 16L7 16L7 17L5 17L5 18L4 18L4 19L5 19L5 18L7 18L7 17L8 17L8 18L9 18L9 17L8 17L8 14L7 14L7 13ZM27 13L27 14L28 14L28 13ZM6 14L6 15L7 15L7 14ZM24 14L24 15L25 15L25 14ZM14 16L14 17L16 17L16 16ZM28 17L28 18L27 18L27 19L28 19L28 18L29 18L29 17ZM0 18L0 20L1 20L1 18ZM15 18L15 19L14 19L14 20L15 20L15 21L12 21L12 22L13 22L13 23L12 23L12 25L13 25L13 24L14 24L14 25L18 25L18 26L20 26L20 28L17 28L17 26L15 26L15 27L14 27L14 28L15 28L15 29L19 29L19 30L20 30L20 28L22 28L22 29L23 29L23 30L24 30L24 29L23 29L23 28L22 28L22 26L24 26L24 28L25 28L25 29L27 29L27 28L25 28L25 27L26 27L26 26L24 26L24 25L22 25L22 26L20 26L20 25L21 25L21 24L22 24L22 23L19 23L19 22L24 22L24 21L19 21L19 18L18 18L18 20L17 20L17 19L16 19L16 18ZM33 18L33 19L34 19L34 18ZM6 19L6 20L7 20L7 21L6 21L6 22L7 22L7 21L8 21L8 20L7 20L7 19ZM15 19L15 20L16 20L16 21L15 21L15 22L16 22L16 24L18 24L18 25L20 25L20 24L18 24L18 22L19 22L19 21L18 21L18 22L16 22L16 21L17 21L17 20L16 20L16 19ZM0 21L0 24L1 24L1 25L0 25L0 29L1 29L1 25L2 25L2 24L1 24L1 23L2 23L2 22L1 22L1 21ZM27 21L27 22L28 22L28 21ZM10 22L10 23L9 23L9 24L10 24L10 25L9 25L9 26L10 26L10 25L11 25L11 24L10 24L10 23L11 23L11 22ZM14 23L14 24L15 24L15 23ZM30 25L30 26L31 26L31 25ZM32 25L32 26L33 26L33 25ZM34 25L34 26L35 26L35 25ZM15 27L15 28L16 28L16 27ZM2 28L2 29L3 29L3 28ZM29 29L29 32L32 32L32 29ZM30 30L30 31L31 31L31 30ZM10 31L10 32L8 32L8 37L9 37L9 36L10 36L10 37L12 37L12 35L13 35L13 34L11 34L11 35L9 35L9 34L10 34L10 33L11 33L11 31ZM27 31L27 32L28 32L28 31ZM21 32L21 33L23 33L23 32ZM25 33L25 34L23 34L23 36L26 36L26 35L28 35L28 34L29 34L29 35L31 35L31 34L32 34L32 33L31 33L31 34L29 34L29 33ZM33 33L33 34L34 34L34 33ZM0 0L0 7L7 7L7 0ZM1 1L1 6L6 6L6 1ZM2 2L2 5L5 5L5 2ZM37 0L30 0L30 7L37 7ZM36 1L31 1L31 6L36 6ZM35 2L32 2L32 5L35 5ZM0 37L7 37L7 30L0 30ZM1 36L6 36L6 31L1 31ZM2 35L5 35L5 32L2 32Z" fill="#000000"/></g></g></svg>
